HIERARCHY
ROOT joint_Root
{
	OFFSET 0.0 0.0 0.0
	CHANNELS 6 Xposition Yposition Zposition Zrotation Xrotation Yrotation 
	JOINT Hips
	{
		OFFSET -17.1583 93.1646 452.98
		CHANNELS 6 Xposition Yposition Zposition Zrotation Xrotation Yrotation 
		JOINT Spine
		{
			OFFSET 15.7357 0.0 0.0
			CHANNELS 6 Xposition Yposition Zposition Zrotation Xrotation Yrotation 
			JOINT Chest
			{
				OFFSET 8.98455 -0.406207 0.0
				CHANNELS 6 Xposition Yposition Zposition Zrotation Xrotation Yrotation 
				JOINT Neck
				{
					OFFSET 16.3773 0.0 0.0
					CHANNELS 6 Xposition Yposition Zposition Zrotation Xrotation Yrotation 
					JOINT Head
					{
						OFFSET 6.45672 0.0 0.0
						CHANNELS 6 Xposition Yposition Zposition Zrotation Xrotation Yrotation 
						End Site
						{
							OFFSET 0.0 0.0 0.0
						}
					}
				}
				JOINT Shoulder_L
				{
					OFFSET 12.9942 -0.242716 4.98039
					CHANNELS 6 Xposition Yposition Zposition Zrotation Xrotation Yrotation 
					JOINT UpperArm_L
					{
						OFFSET 5.34809 0.0 0.0
						CHANNELS 6 Xposition Yposition Zposition Zrotation Xrotation Yrotation 
						JOINT LowerArm_L
						{
							OFFSET 24.3286 1.87007e-05 0.0
							CHANNELS 6 Xposition Yposition Zposition Zrotation Xrotation Yrotation 
							JOINT Hand_L
							{
								OFFSET 22.2916 0.0 0.0
								CHANNELS 6 Xposition Yposition Zposition Zrotation Xrotation Yrotation 
								End Site
								{
									OFFSET 0.0 0.0 0.0
								}
							}
						}
					}
				}
				JOINT Shoulder_R
				{
					OFFSET 12.9945 -0.242716 -4.98039
					CHANNELS 6 Xposition Yposition Zposition Zrotation Xrotation Yrotation 
					JOINT UpperArm_R
					{
						OFFSET -5.34813 0.0 0.0
						CHANNELS 6 Xposition Yposition Zposition Zrotation Xrotation Yrotation 
						JOINT LowerArm_R
						{
							OFFSET -24.3289 0.000322201 0.0
							CHANNELS 6 Xposition Yposition Zposition Zrotation Xrotation Yrotation 
							JOINT Hand_R
							{
								OFFSET -22.2915 -0.000108084 0.0
								CHANNELS 6 Xposition Yposition Zposition Zrotation Xrotation Yrotation 
								End Site
								{
									OFFSET 0.0 0.0 0.0
								}
							}
						}
					}
				}
			}
		}
		JOINT UpperLeg_L
		{
			OFFSET -2.19248 -6.46944 0.0
			CHANNELS 6 Xposition Yposition Zposition Zrotation Xrotation Yrotation 
			JOINT LowerLeg_L
			{
				OFFSET 39.0811 0.0 -1.23785e-05
				CHANNELS 6 Xposition Yposition Zposition Zrotation Xrotation Yrotation 
				JOINT Foot_L
				{
					OFFSET 40.9854 0.0 -1.26872e-05
					CHANNELS 6 Xposition Yposition Zposition Zrotation Xrotation Yrotation 
					JOINT Toes_L
					{
						OFFSET 11.7543 0.0 0.0
						CHANNELS 6 Xposition Yposition Zposition Zrotation Xrotation Yrotation 
						End Site
						{
							OFFSET 0.0 0.0 0.0
						}
					}
				}
			}
		}
		JOINT UpperLeg_R
		{
			OFFSET -2.19251 6.46944 0.0
			CHANNELS 6 Xposition Yposition Zposition Zrotation Xrotation Yrotation 
			JOINT LowerLeg_R
			{
				OFFSET -39.0811 -0.00228153 -0.0401928
				CHANNELS 6 Xposition Yposition Zposition Zrotation Xrotation Yrotation 
				JOINT Foot_R
				{
					OFFSET -40.9854 0.0 0.0
					CHANNELS 6 Xposition Yposition Zposition Zrotation Xrotation Yrotation 
					JOINT Toes_R
					{
						OFFSET -11.7543 0.0 0.0
						CHANNELS 6 Xposition Yposition Zposition Zrotation Xrotation Yrotation 
						End Site
						{
							OFFSET 0.0 0.0 0.0
						}
					}
				}
			}
		}
	}
}
MOTION
Frames:	5
Frame Time:	0.0333333
0.000000 0.000000 0.000000 0.000000 0.000000 -0.000000 -0.120385 91.064900 8.391900 87.902000 -2.654100 9.616030 15.735700 0.000005 -0.000001 -156.696000 89.440500 158.102000 8.984550 -0.406207 -0.000000 -8.217930 0.828822 2.879290 16.377300 -0.000001 -0.000001 -2.304270 0.957454 -1.993800 6.456720 -0.000001 -0.000000 2.532680 -0.168134 -2.601960 12.994200 -0.242716 4.980390 -89.370000 -1.250350 -63.254600 5.348090 -0.000007 -0.000001 -69.327000 -58.906900 -112.603000 24.328600 0.000019 0.000005 -0.013711 -3.770400 -0.209294 22.291600 -0.000001 0.000005 54.502300 4.047390 23.549700 12.994500 -0.242716 -4.980390 92.518000 -4.969210 -63.083200 -5.348130 -0.000001 -0.000004 -64.443300 -59.404900 -114.291000 -24.328900 0.000322 -0.000009 -0.001055 -17.194000 -0.000096 -22.291500 -0.000108 -0.000004 46.262100 5.427000 -3.836410 -2.192480 -6.469440 -0.000000 -171.900000 -7.753120 12.365700 39.081100 -0.000007 -0.000012 0.068807 -0.186910 20.210100 40.985400 -0.000006 -0.000013 0.979131 12.379200 -75.623500 11.754300 -0.000000 0.000003 -0.002680 0.204562 -8.276620 -2.192510 6.469440 -0.000001 175.497000 3.368370 -167.448000 -39.081100 -0.002282 -0.040193 0.021482 -0.055743 18.042100 -40.985400 0.000008 0.000006 -5.588650 8.323660 -75.539400 -11.754300 -0.000006 -0.000006 -0.011600 0.282898 -5.076540
0.000000 0.000000 0.000000 0.000000 0.000000 -0.000000 -0.143446 91.089600 8.312410 87.899400 -2.561650 9.590940 15.735700 0.000005 -0.000001 -158.023000 89.442900 159.429000 8.984550 -0.406207 -0.000000 -8.192260 0.834717 2.878550 16.377300 -0.000001 -0.000001 -2.167230 0.981254 -1.925690 6.456720 -0.000001 -0.000000 2.619300 -0.037582 -2.626300 12.994200 -0.242716 4.980390 -89.369700 -1.250820 -63.251200 5.348090 -0.000007 -0.000001 -69.333800 -58.761700 -112.589000 24.328600 0.000019 0.000005 -0.014444 -3.796550 -0.218805 22.291600 -0.000001 0.000005 54.417000 4.045380 23.578500 12.994500 -0.242716 -4.980390 92.517200 -4.974800 -63.117000 -5.348130 -0.000001 -0.000004 -64.461300 -59.357400 -114.303000 -24.328900 0.000322 -0.000009 -0.001055 -17.250600 -0.000096 -22.291500 -0.000108 -0.000004 46.108100 5.426380 -3.815440 -2.192480 -6.469440 -0.000000 -171.894000 -7.711310 12.290200 39.081100 -0.000007 -0.000012 0.068698 -0.187059 20.166100 40.985400 -0.000006 -0.000013 0.965210 12.432400 -75.557000 11.754300 -0.000000 0.000003 -0.002513 0.202598 -8.356530 -2.192510 6.469440 -0.000001 175.528000 3.398540 -167.495000 -39.081100 -0.002282 -0.040193 0.020647 -0.053339 17.991500 -40.985400 0.000008 0.000006 -5.630510 8.257420 -75.489200 -11.754300 -0.000006 -0.000006 -0.011970 0.285478 -4.970910
0.000000 0.000000 0.000000 0.000000 0.000000 -0.000000 -0.160385 91.102700 8.243360 87.943500 -2.459280 9.524460 15.735700 0.000005 -0.000001 -157.751000 89.447700 159.148000 8.984550 -0.406207 -0.000000 -8.193350 0.825141 2.859080 16.377300 -0.000001 -0.000001 -2.113270 1.016800 -1.914980 6.456720 -0.000001 -0.000000 2.753920 0.070153 -2.645200 12.994200 -0.242716 4.980390 -89.378400 -1.234480 -63.268400 5.348090 -0.000007 -0.000001 -69.153500 -58.752000 -112.423000 24.328600 0.000019 0.000005 -0.013580 -3.738590 -0.208968 22.291600 -0.000001 0.000005 54.188000 4.050390 23.506400 12.994500 -0.242716 -4.980390 92.519200 -4.991430 -63.175900 -5.348130 -0.000001 -0.000004 -64.546300 -59.296600 -114.408000 -24.328900 0.000322 -0.000009 -0.001051 -17.331400 -0.000097 -22.291500 -0.000108 -0.000004 45.974900 5.426870 -3.832010 -2.192480 -6.469440 -0.000000 -171.977000 -7.614120 12.127800 39.081100 -0.000007 -0.000012 0.070100 -0.190578 20.195000 40.985400 -0.000006 -0.000013 0.944079 12.393800 -75.536500 11.754300 -0.000000 0.000003 -0.002715 0.204970 -8.260030 -2.192510 6.469440 -0.000001 175.508000 3.499140 -167.618000 -39.081100 -0.002282 -0.040193 0.024515 -0.065083 18.035000 -40.985400 0.000008 0.000006 -5.518440 8.204370 -75.489400 -11.754300 -0.000006 -0.000006 -0.011875 0.284822 -4.997760
0.000000 0.000000 0.000000 0.000000 0.000000 -0.000000 -0.175046 91.128900 8.178390 87.963800 -2.354140 9.473320 15.735700 0.000005 -0.000001 -158.596000 89.440200 159.989000 8.984550 -0.406207 -0.000000 -8.183970 0.845835 2.852390 16.377300 -0.000001 -0.000001 -1.994780 0.932449 -1.922960 6.456720 -0.000001 -0.000000 2.696230 -0.078934 -2.699350 12.994200 -0.242716 4.980390 -89.383700 -1.224830 -63.286600 5.348090 -0.000007 -0.000001 -69.085700 -58.697400 -112.370000 24.328600 0.000019 0.000005 -0.016543 -3.688200 -0.257893 22.291600 -0.000001 0.000005 54.173100 4.046100 23.568100 12.994500 -0.242716 -4.980390 92.520500 -4.980620 -63.114000 -5.348130 -0.000001 -0.000004 -64.326000 -59.267300 -114.304000 -24.328900 0.000322 -0.000009 -0.001055 -17.416300 -0.000097 -22.291500 -0.000108 -0.000004 45.937600 5.426210 -3.809240 -2.192480 -6.469440 -0.000000 -171.985000 -7.598510 12.063200 39.081100 -0.000007 -0.000012 0.068357 -0.186794 20.100000 40.985400 -0.000006 -0.000013 0.926621 12.467500 -75.481000 11.754300 -0.000000 0.000003 -0.002525 0.202739 -8.350800 -2.192510 6.469440 -0.000001 175.521000 3.501310 -167.648000 -39.081100 -0.002282 -0.040193 0.022246 -0.058476 17.930200 -40.985400 0.000008 0.000006 -5.554410 8.093070 -75.426600 -11.754300 -0.000006 -0.000006 -0.011702 0.283608 -5.047480
0.000000 0.000000 0.000000 0.000000 0.000000 -0.000000 -0.183415 91.138400 8.128460 88.002700 -2.221950 9.454370 15.735700 0.000005 -0.000001 -160.064000 89.457800 161.444000 8.984550 -0.406207 -0.000000 -8.144780 0.825228 2.824590 16.377300 -0.000001 -0.000001 -1.931220 0.747716 -1.955740 6.456720 -0.000001 -0.000000 2.648470 -0.352412 -2.715750 12.994200 -0.242716 4.980390 -89.388000 -1.215130 -63.265200 5.348090 -0.000007 -0.000001 -68.818300 -58.709300 -112.170000 24.328600 0.000019 0.000005 -0.014810 -3.609260 -0.235984 22.291600 -0.000001 0.000005 54.264500 4.045440 23.577800 12.994500 -0.242716 -4.980390 92.521000 -4.983210 -63.120900 -5.348130 -0.000001 -0.000004 -64.427800 -59.214500 -114.444000 -24.328900 0.000322 -0.000009 -0.001056 -17.400200 -0.000097 -22.291500 -0.000108 -0.000004 45.833100 5.426320 -3.813310 -2.192480 -6.469440 -0.000000 -172.018000 -7.540060 11.985000 39.081100 -0.000007 -0.000012 0.065929 -0.180288 20.087000 40.985400 -0.000006 -0.000013 0.937277 12.568000 -75.390900 11.754300 -0.000000 0.000003 -0.002378 0.200983 -8.422240 -2.192510 6.469440 -0.000001 175.513000 3.517260 -167.705000 -39.081100 -0.002282 -0.040193 0.024278 -0.064648 17.958000 -40.985400 0.000008 0.000006 -5.535480 7.995130 -75.418200 -11.754300 -0.000006 -0.000006 -0.011647 0.283223 -5.063260
